<svg viewBox="0 0 40 40" xmlns="http://www.w3.org/2000/svg">
  <defs>
    <linearGradient id="goldGradient" x1="0%" y1="0%" x2="100%" y2="100%">
      <stop offset="0%" stop-color="#F7E3A3" />
      <stop offset="50%" stop-color="#D6A743" />
      <stop offset="100%" stop-color="#B8862D" />
    </linearGradient>
    <linearGradient id="creamGradient" x1="0%" y1="0%" x2="0%" y2="100%">
      <stop offset="0%" stop-color="#FDFCFA" />
      <stop offset="100%" stop-color="#F5F0E8" />
    </linearGradient>
  </defs>
  <circle cx="20" cy="20" r="19" fill="url(#goldGradient)" />
  <path d="M20 6 C16 6 13 8 12 11 C11 14 12 17 13 19 L14 21 C14.5 22 15 23 16 24 L17 26 L18 28 L19 31 L20 34 L21 31 L22 28 L23 26 L24 24 C25 23 25.5 22 26 21 L27 19 C28 17 29 14 28 11 C27 8 24 6 20 6 Z" fill="url(#creamGradient)" stroke="#D6A743" stroke-width="0.5" />
  <ellipse cx="20" cy="9" rx="5" ry="2.5" fill="#FDFCFA" opacity="0.8" />
  <path d="M16 13 Q17 15 20 15 Q23 15 24 13" stroke="#E8DCC8" stroke-width="0.8" fill="none" />
  <path d="M15 17 Q17 19 20 19 Q23 19 25 17" stroke="#E8DCC8" stroke-width="0.8" fill="none" />
  <path d="M16 21 Q18 23 20 23 Q22 23 24 21" stroke="#E8DCC8" stroke-width="0.8" fill="none" />
</svg>
